<?xml version="1.0" encoding="UTF-8" standalone="no"?>
<svg
   xmlns:dc="http://purl.org/dc/elements/1.1/"
   xmlns:cc="http://creativecommons.org/ns#"
   xmlns:rdf="http://www.w3.org/1999/02/22-rdf-syntax-ns#"
   xmlns:svg="http://www.w3.org/2000/svg"
   xmlns="http://www.w3.org/2000/svg"
   xmlns:sodipodi="http://sodipodi.sourceforge.net/DTD/sodipodi-0.dtd"
   xmlns:inkscape="http://www.inkscape.org/namespaces/inkscape"
   width="166px"
   height="24px"
   viewBox="0 0 166 24"
   version="1.1"
   id="svg10"
   sodipodi:docname="datapacket.svg"
   inkscape:version="1.0.1 (3bc2e813f5, 2020-09-07)">
  <metadata
     id="metadata16">
    <rdf:RDF>
      <cc:Work
         rdf:about="">
        <dc:format>image/svg+xml</dc:format>
        <dc:type
           rdf:resource="http://purl.org/dc/dcmitype/StillImage" />
        <dc:title></dc:title>
      </cc:Work>
    </rdf:RDF>
  </metadata>
  <defs
     id="defs14" />
  <sodipodi:namedview
     pagecolor="#000000"
     bordercolor="#666666"
     borderopacity="1"
     objecttolerance="10"
     gridtolerance="10"
     guidetolerance="10"
     inkscape:pageopacity="1"
     inkscape:pageshadow="2"
     inkscape:window-width="1440"
     inkscape:window-height="835"
     id="namedview12"
     showgrid="false"
     inkscape:zoom="7.7650602"
     inkscape:cx="31.487199"
     inkscape:cy="12"
     inkscape:window-x="0"
     inkscape:window-y="0"
     inkscape:window-maximized="1"
     inkscape:current-layer="svg10" />
  <g
     fill="#F43F45"
     id="g6">
    <path
       d="M15.356 10.842a.055.055 0 01-.04-.014.058.058 0 01-.02-.04c-.596-4.39-4.25-7.659-8.568-7.663H.06A.065.065 0 010 3.059v-.957a1.537 1.537 0 01.432-1.084C.712.73 1.092.57 1.488.574h5.24C12.419.558 17.201 4.96 17.804 10.772a.055.055 0 010 .05.067.067 0 01-.048.024l-2.4-.004z"
       id="path2" />
    <path
       d="M1.488 23.463c-.395 0-.774-.161-1.054-.449A1.55 1.55 0 010 21.931v-6.88a.054.054 0 01.02-.044.047.047 0 01.04 0H6.8a2.806 2.806 0 002.039-.847 2.96 2.96 0 00.841-2.086c-.001-1.648-1.276-2.998-2.88-3.052H2.48v1.84a.06.06 0 01-.06.062H.06a.061.061 0 01-.06-.062V7.987c.002-.842.667-1.525 1.488-1.527H6.8c2.982 0 5.4 2.482 5.4 5.544 0 3.062-2.418 5.545-5.4 5.545H2.48v3.372h4.26c3.68-.014 6.952-2.406 8.168-5.972a.06.06 0 01.056-.041h2.468a.071.071 0 01.052.025.072.072 0 010 .053c-1.324 5.006-5.748 8.481-10.8 8.485l-5.196-.008z"
       id="path4" />
  </g>
  <path
     fill="#FFF"
     d="M35.16 6.198c3.286 0 5.949 2.615 5.949 5.9s-2.647 5.9-5.949 5.9h-3.7a.895.895 0 01-.908-.892V7.09c0-.495.382-.893.893-.893h3.715zm0 10.047c2.345 0 4.179-1.834 4.195-4.147 0-2.312-1.866-4.146-4.195-4.146h-2.854v8.293h2.854zm20.44 1.754h-1.962l-3.7-8.74L46.19 18H44.23l4.88-11.419a.9.9 0 01.845-.558c.367 0 .67.208.813.558L55.599 18zM68.14 6.198v1.754h-4.146v10.047H62.24V7.952h-4.146V6.198H68.14zm13.866 11.8h-1.962l-3.7-8.738-3.747 8.739h-1.962l4.88-11.419a.9.9 0 01.845-.558c.367 0 .67.208.814.558L82.006 18zm9.631-11.8c2.28 0 4.13 1.897 4.13 4.178 0 2.296-1.85 4.082-4.13 4.082h-3.476v3.54h-1.754V7.124c0-.51.43-.925.94-.925h4.29zm0 6.506c1.324 0 2.376-1.02 2.376-2.328 0-1.324-1.084-2.424-2.376-2.424h-3.476v4.752h3.476zM109.647 18h-1.962l-3.7-8.74-3.747 8.74h-1.962l4.88-11.419a.9.9 0 01.845-.558c.367 0 .67.208.814.558L109.647 18zm9.294.175c-3.349 0-6.06-2.759-6.06-6.14a6.027 6.027 0 016.06-6.06c1.834 0 3.493.846 4.609 2.17l-1.324 1.147c-.797-.972-1.961-1.578-3.285-1.578a4.291 4.291 0 00-4.306 4.321c0 2.408 1.93 4.402 4.306 4.402 1.451 0 2.727-.638 3.509-1.77l1.371 1.068c-1.084 1.531-2.87 2.44-4.88 2.44zm9.345-.175V6.198h1.755v11.8h-1.755zm7.448 0l-5.183-5.343a.948.948 0 01-.207-.59.905.905 0 01.191-.558l5.183-5.31h2.344l-5.661 5.852L138.158 18h-2.424zm15.963-10.047h-7.32v3.27h6.842v1.753h-6.842v3.27h7.32v1.754h-8.133a.953.953 0 01-.94-.941V7.123c0-.51.43-.925.94-.925h8.133v1.754zm13.861-1.754v1.754h-4.146v10.047h-1.754V7.952h-4.146V6.198h10.046z"
     id="path8" />
</svg>
